<svg xmlns="http://www.w3.org/2000/svg" viewBox="0 0 410 404">
  <defs>
    <linearGradient id="a" x1="50%" x2="50%" y1="3.84%" y2="97.09%">
      <stop stop-color="#5A45FF" offset="0%" />
      <stop stop-color="#0EB7FF" offset="100%" />
    </linearGradient>
    <linearGradient id="b" x1="50%" x2="50%" y1="-13.57%" y2="100%">
      <stop stop-color="#FFEA83" offset="0%" />
      <stop stop-color="#FFDD35" offset="8.33%" />
      <stop stop-color="#FFA800" offset="100%" />
    </linearGradient>
  </defs>
  <path fill="url(#a)" d="M399.641 59.525L215.82 388.699c-7.556 13.74-26.672 13.788-34.287.084L10.46 59.558c-7.99-14.036 2.287-31.219 18.23-30.89l352.764 7.19c15.75.321 25.518 17.54 17.339 31.174z" />
  <path fill="url(#b)" d="M292.965 1.574l-96.44 210.62c-3.227 7.05-13.433 7.09-16.714.067L116.308 71.315c-3.184-6.852 1.83-14.734 9.376-14.594l72.933 1.384a8.5 8.5 0 007.927-5.18l9.911-24.39c2.647-6.512 11.973-6.835 15.12-.517l13.523 26.24a8.5 8.5 0 007.768 4.538l29.459.559c7.577.144 12.47 8.258 9.165 15.197z" />
</svg>
